REM DIRINDEX 1\2,1\3,1\4,1\5,1\6
REM DIRNAME folder01,folder02,folder03,folder04,folder05,folder06
TITLE ""
FILE "Disc2Track21.mp3" MP3
  TRACK 01 AUDIO
    TITLE "3:cjc030_02595"
    INDEX 01 00:00:00
  TRACK 02 AUDIO
    TITLE "0:"
    INDEX 01 00:01:07
  TRACK 03 AUDIO
    TITLE "4:cjc030_02596"
    INDEX 01 00:01:15
  TRACK 04 AUDIO
    TITLE "0:"
    INDEX 01 00:03:12
  TRACK 05 AUDIO
    TITLE "5:cjc030_02597"
    INDEX 01 00:03:21
  TRACK 06 AUDIO
    TITLE "0:"
    INDEX 01 00:04:33
  TRACK 07 AUDIO
    TITLE "3:cjc030_02598"
    INDEX 01 00:05:12
  TRACK 08 AUDIO
    TITLE "0:"
    INDEX 01 00:06:31
  TRACK 09 AUDIO
    TITLE "4:cjc030_02599"
    INDEX 01 00:06:39
  TRACK 10 AUDIO
    TITLE "0:"
    INDEX 01 00:08:38
  TRACK 11 AUDIO
    TITLE "5:cjc030_02600"
    INDEX 01 00:08:48
  TRACK 12 AUDIO
    TITLE "0:"
    INDEX 01 00:09:65
  TRACK 13 AUDIO
    TITLE "6:cjc030_02601"
    INDEX 01 00:10:04
  TRACK 14 AUDIO
    TITLE "0:"
    INDEX 01 00:13:24
  TRACK 15 AUDIO
    TITLE "3:cjc030_02602"
    INDEX 01 00:13:73
  TRACK 16 AUDIO
    TITLE "0:"
    INDEX 01 00:15:07
  TRACK 17 AUDIO
    TITLE "4:cjc030_02603"
    INDEX 01 00:15:15
  TRACK 18 AUDIO
    TITLE "0:"
    INDEX 01 00:19:24
  TRACK 19 AUDIO
    TITLE "5:cjc030_02604"
    INDEX 01 00:19:32
  TRACK 20 AUDIO
    TITLE "0:"
    INDEX 01 00:20:43
  TRACK 21 AUDIO
    TITLE "6:cjc030_02605"
    INDEX 01 00:20:55
  TRACK 22 AUDIO
    TITLE "0:"
    INDEX 01 00:24:18
  TRACK 23 AUDIO
    TITLE "3:cjc030_02606"
    INDEX 01 00:24:67
  TRACK 24 AUDIO
    TITLE "0:"
    INDEX 01 00:26:11
  TRACK 25 AUDIO
    TITLE "4:cjc030_02607"
    INDEX 01 00:26:18
  TRACK 26 AUDIO
    TITLE "0:"
    INDEX 01 00:28:15
  TRACK 27 AUDIO
    TITLE "5:cjc030_02608"
    INDEX 01 00:28:21
  TRACK 28 AUDIO
    TITLE "0:"
    INDEX 01 00:29:42
  TRACK 29 AUDIO
    TITLE "6:cjc030_02609"
    INDEX 01 00:29:54
  TRACK 30 AUDIO
    TITLE "0:"
    INDEX 01 00:32:35
  TRACK 31 AUDIO
    TITLE "3:cjc030_02610"
    INDEX 01 00:33:09
  TRACK 32 AUDIO
    TITLE "0:"
    INDEX 01 00:34:40
  TRACK 33 AUDIO
    TITLE "4:cjc030_02611"
    INDEX 01 00:34:49
  TRACK 34 AUDIO
    TITLE "0:"
    INDEX 01 00:37:05
  TRACK 35 AUDIO
    TITLE "5:cjc030_02612"
    INDEX 01 00:37:12
  TRACK 36 AUDIO
    TITLE "0:"
    INDEX 01 00:38:45
  TRACK 37 AUDIO
    TITLE "6:cjc030_02613"
    INDEX 01 00:38:59
  TRACK 38 AUDIO
    TITLE "0:"
    INDEX 01 00:41:63
  TRACK 39 AUDIO
    TITLE "3:cjc030_02614"
    INDEX 01 00:42:35
  TRACK 40 AUDIO
    TITLE "0:"
    INDEX 01 00:43:56
  TRACK 41 AUDIO
    TITLE "4:cjc030_02615"
    INDEX 01 00:43:64
  TRACK 42 AUDIO
    TITLE "0:"
    INDEX 01 00:45:06
  TRACK 43 AUDIO
    TITLE "5:cjc030_02616"
    INDEX 01 00:45:14
  TRACK 44 AUDIO
    TITLE "0:"
    INDEX 01 00:46:33
  TRACK 45 AUDIO
    TITLE "6:cjc030_02617"
    INDEX 01 00:46:49
  TRACK 46 AUDIO
    TITLE "0:"
    INDEX 01 00:48:42
  TRACK 47 AUDIO
    TITLE "3:cjc030_02618"
    INDEX 01 00:49:16
  TRACK 48 AUDIO
    TITLE "0:"
    INDEX 01 00:50:42
  TRACK 49 AUDIO
    TITLE "4:cjc030_02619"
    INDEX 01 00:50:52
  TRACK 50 AUDIO
    TITLE "0:"
    INDEX 01 00:52:51
  TRACK 51 AUDIO
    TITLE "5:cjc030_02620"
    INDEX 01 00:52:59
  TRACK 52 AUDIO
    TITLE "0:"
    INDEX 01 00:54:11
  TRACK 53 AUDIO
    TITLE "6:cjc030_02621"
    INDEX 01 00:54:25
  TRACK 54 AUDIO
    TITLE "0:"
    INDEX 01 00:59:06
  TRACK 55 AUDIO
    TITLE "3:cjc030_02622"
    INDEX 01 00:59:51
  TRACK 56 AUDIO
    TITLE "0:"
    INDEX 01 01:01:09
  TRACK 57 AUDIO
    TITLE "4:cjc030_02623"
    INDEX 01 01:01:17
  TRACK 58 AUDIO
    TITLE "0:"
    INDEX 01 01:03:02
  TRACK 59 AUDIO
    TITLE "5:cjc030_02624"
    INDEX 01 01:03:12
  TRACK 60 AUDIO
    TITLE "0:"
    INDEX 01 01:04:45
  TRACK 61 AUDIO
    TITLE "3:cjc030_02625"
    INDEX 01 01:05:19
  TRACK 62 AUDIO
    TITLE "0:"
    INDEX 01 01:06:42
  TRACK 63 AUDIO
    TITLE "4:cjc030_02626"
    INDEX 01 01:06:51
  TRACK 64 AUDIO
    TITLE "0:"
    INDEX 01 01:07:68
  TRACK 65 AUDIO
    TITLE "5:cjc030_02627"
    INDEX 01 01:07:74
  TRACK 66 AUDIO
    TITLE "0:"
    INDEX 01 01:09:24
  TRACK 67 AUDIO
    TITLE "6:cjc030_02628"
    INDEX 01 01:09:42
  TRACK 68 AUDIO
    TITLE "0:"
    INDEX 01 01:13:08
  TRACK 69 AUDIO
    TITLE "3:cjc030_02629"
    INDEX 01 01:13:57
  TRACK 70 AUDIO
    TITLE "0:"
    INDEX 01 01:15:11
  TRACK 71 AUDIO
    TITLE "4:cjc030_02630"
    INDEX 01 01:15:21
  TRACK 72 AUDIO
    TITLE "0:"
    INDEX 01 01:17:14
  TRACK 73 AUDIO
    TITLE "5:cjc030_02631"
    INDEX 01 01:17:24
  TRACK 74 AUDIO
    TITLE "0:"
    INDEX 01 01:18:54
